G04*
G04 #@! TF.GenerationSoftware,Altium Limited,Altium Designer,26.2.0 (7)*
G04*
G04 Layer_Color=32768*
%FSLAX25Y25*%
%MOIN*%
G70*
G04*
G04 #@! TF.SameCoordinates,030BD7D4-855A-4116-A74B-16AF596EF1BF*
G04*
G04*
G04 #@! TF.FilePolarity,Positive*
G04*
G01*
G75*
%ADD13C,0.00787*%
%ADD46C,0.00394*%
%ADD47C,0.00197*%
D13*
X29299Y174500D02*
G03*
X56858Y174500I13780J0D01*
G01*
D02*
G03*
X29299Y174500I-13780J0D01*
G01*
X66220D02*
G03*
X93779Y174500I13780J0D01*
G01*
D02*
G03*
X66220Y174500I-13780J0D01*
G01*
X103720D02*
G03*
X131280Y174500I13780J0D01*
G01*
D02*
G03*
X103720Y174500I-13780J0D01*
G01*
X379720Y178000D02*
G03*
X407279Y178000I13780J0D01*
G01*
D02*
G03*
X379720Y178000I-13780J0D01*
G01*
X421000Y73000D02*
G03*
X446000Y73000I12500J0D01*
G01*
D02*
G03*
X421000Y73000I-12500J0D01*
G01*
X67299Y63000D02*
G03*
X94858Y63000I13780J0D01*
G01*
D02*
G03*
X67299Y63000I-13780J0D01*
G01*
X422500Y139000D02*
G03*
X447500Y139000I12500J0D01*
G01*
D02*
G03*
X422500Y139000I-12500J0D01*
G01*
X215721Y143000D02*
G03*
X243280Y143000I13780J0D01*
G01*
D02*
G03*
X215721Y143000I-13780J0D01*
G01*
X379720Y218500D02*
G03*
X407279Y218500I13780J0D01*
G01*
D02*
G03*
X379720Y218500I-13780J0D01*
G01*
X166142Y169500D02*
G03*
X193701Y169500I13780J0D01*
G01*
D02*
G03*
X166142Y169500I-13780J0D01*
G01*
X165642Y208000D02*
G03*
X193201Y208000I13780J0D01*
G01*
D02*
G03*
X165642Y208000I-13780J0D01*
G01*
X47795Y215350D02*
Y231650D01*
Y215350D02*
X64331D01*
Y231650D01*
X47795D02*
X64331D01*
X171850Y46858D02*
X183150D01*
Y89142D01*
X171850D02*
X183150D01*
X171850Y46858D02*
Y89142D01*
X456850Y349732D02*
X473150D01*
Y366268D01*
X456850D02*
X473150D01*
X456850Y349732D02*
Y366268D01*
X208350Y56858D02*
X219650D01*
Y89142D01*
X208350D02*
X219650D01*
X208350Y56858D02*
Y89142D01*
X16850Y235669D02*
X33150D01*
Y252205D01*
X16850D02*
X33150D01*
X16850Y235669D02*
Y252205D01*
X358732Y304850D02*
Y321150D01*
Y304850D02*
X375268D01*
Y321150D01*
X358732D02*
X375268D01*
X344870Y6709D02*
X356130D01*
Y85291D01*
X344870D02*
X356130D01*
X344870Y6709D02*
Y85291D01*
X26850Y46858D02*
X38150D01*
Y79142D01*
X26850D02*
X38150D01*
X26850Y46858D02*
Y79142D01*
D46*
X311000Y212032D02*
Y215968D01*
X309032Y214000D02*
X312968D01*
X146500Y132032D02*
Y135968D01*
X144532Y134000D02*
X148468D01*
X229000Y190138D02*
Y194075D01*
X227031Y192106D02*
X230968D01*
D47*
X235296Y169444D02*
G03*
X238547Y173012I-197J3445D01*
G01*
X219453Y173085D02*
G03*
X222701Y169444I3445J-197D01*
G01*
Y214843D02*
G03*
X219453Y211201I197J-3445D01*
G01*
X238547Y211275D02*
G03*
X235296Y214843I-3448J123D01*
G01*
X235988Y236461D02*
X247012D01*
Y281539D01*
X235988D02*
X247012D01*
X235988Y236461D02*
Y281539D01*
X434114Y367134D02*
X445886D01*
Y303866D02*
Y367134D01*
X434114Y303866D02*
X445886D01*
X434114D02*
Y367134D01*
X411114D02*
X422886D01*
Y303866D02*
Y367134D01*
X411114Y303866D02*
X422886D01*
X411114D02*
Y367134D01*
X290988Y316961D02*
X302012D01*
Y362039D01*
X290988D02*
X302012D01*
X290988Y316961D02*
Y362039D01*
X313988Y316961D02*
X325012D01*
Y362039D01*
X313988D02*
X325012D01*
X313988Y316961D02*
Y362039D01*
X378488Y31961D02*
X389512D01*
Y77039D01*
X378488D02*
X389512D01*
X378488Y31961D02*
Y77039D01*
X137012Y112740D02*
X158075D01*
X137012Y155260D02*
X158075D01*
Y112740D02*
Y155260D01*
X137012Y112740D02*
Y155260D01*
X106488Y91961D02*
X117512D01*
Y137039D01*
X106488D02*
X117512D01*
X106488Y91961D02*
Y137039D01*
X317988Y40461D02*
X329012D01*
Y85539D01*
X317988D02*
X329012D01*
X317988Y40461D02*
Y85539D01*
X378488Y97961D02*
X389512D01*
Y143039D01*
X378488D02*
X389512D01*
X378488Y97961D02*
Y143039D01*
X222701Y169444D02*
X235296D01*
X222701Y214843D02*
X235296D01*
X238547Y173012D02*
Y211201D01*
X219453Y173012D02*
Y211201D01*
X131614Y89634D02*
X143386D01*
Y36366D02*
Y89634D01*
X131614Y36366D02*
X143386D01*
X131614D02*
Y89634D01*
M02*
