G04*
G04 #@! TF.GenerationSoftware,Altium Limited,Altium Designer,26.2.0 (7)*
G04*
G04 Layer_Color=8421504*
%FSLAX25Y25*%
%MOIN*%
G70*
G04*
G04 #@! TF.SameCoordinates,030BD7D4-855A-4116-A74B-16AF596EF1BF*
G04*
G04*
G04 #@! TF.FilePolarity,Positive*
G04*
G01*
G75*
G36*
X28346Y236653D02*
Y243347D01*
X21654D01*
X21654Y241516D01*
X21644Y241416D01*
X21567Y241231D01*
X21426Y241090D01*
X21242Y241014D01*
X21142Y241004D01*
X21142D01*
X17244D01*
Y238996D01*
X21142Y238996D01*
X21242Y238986D01*
X21426Y238910D01*
X21567Y238769D01*
X21644Y238584D01*
X21654Y238484D01*
X21654D01*
Y236653D01*
X28346D01*
D02*
G37*
G36*
X21654Y251220D02*
Y244528D01*
X28346D01*
Y246358D01*
X28356Y246458D01*
X28433Y246643D01*
X28574Y246784D01*
X28758Y246860D01*
X28858Y246870D01*
D01*
X32756D01*
Y248878D01*
X28858D01*
X28758Y248888D01*
X28574Y248964D01*
X28433Y249105D01*
X28356Y249290D01*
X28346Y249390D01*
X28346Y249390D01*
Y251220D01*
X21654D01*
D02*
G37*
G36*
X56653Y226847D02*
Y220153D01*
X58484D01*
X58584Y220144D01*
X58769Y220067D01*
X58910Y219926D01*
X58986Y219742D01*
X58996Y219642D01*
D01*
Y215744D01*
X61004D01*
Y219642D01*
X61014Y219742D01*
X61090Y219926D01*
X61231Y220067D01*
X61416Y220144D01*
X61516Y220153D01*
X61516Y220153D01*
X63346D01*
Y226847D01*
X56653D01*
D02*
G37*
G36*
X48779Y220153D02*
Y226847D01*
X50610D01*
X50710Y226856D01*
X50895Y226933D01*
X51036Y227074D01*
X51112Y227258D01*
X51122Y227358D01*
X51122D01*
Y231256D01*
X53130D01*
Y227358D01*
X53140Y227258D01*
X53216Y227074D01*
X53357Y226933D01*
X53542Y226856D01*
X53642Y226847D01*
D01*
X55472D01*
Y220153D01*
X48779D01*
D02*
G37*
G36*
X367590Y316347D02*
Y309653D01*
X369421D01*
X369521Y309644D01*
X369706Y309567D01*
X369847Y309426D01*
X369923Y309242D01*
X369933Y309142D01*
D01*
Y305244D01*
X371941D01*
Y309142D01*
X371951Y309242D01*
X372027Y309426D01*
X372168Y309567D01*
X372353Y309644D01*
X372453Y309653D01*
X372453Y309653D01*
X374284D01*
Y316347D01*
X367590D01*
D02*
G37*
G36*
X359717Y309653D02*
Y316347D01*
X361547D01*
X361647Y316356D01*
X361832Y316433D01*
X361973Y316574D01*
X362049Y316758D01*
X362059Y316858D01*
X362059D01*
Y320756D01*
X364067D01*
Y316858D01*
X364077Y316758D01*
X364153Y316574D01*
X364294Y316433D01*
X364479Y316356D01*
X364579Y316347D01*
D01*
X366409D01*
Y309653D01*
X359717D01*
D02*
G37*
G36*
X468347Y350716D02*
Y357410D01*
X461654D01*
X461654Y355579D01*
X461644Y355479D01*
X461567Y355294D01*
X461426Y355153D01*
X461242Y355077D01*
X461142Y355067D01*
X461142D01*
X457244D01*
Y353059D01*
X461142Y353059D01*
X461242Y353049D01*
X461426Y352973D01*
X461567Y352832D01*
X461644Y352647D01*
X461654Y352547D01*
X461654D01*
Y350716D01*
X468347D01*
D02*
G37*
G36*
X461654Y365283D02*
Y358591D01*
X468347D01*
Y360421D01*
X468356Y360521D01*
X468433Y360706D01*
X468574Y360847D01*
X468758Y360923D01*
X468858Y360933D01*
D01*
X472756D01*
Y362941D01*
X468858D01*
X468758Y362951D01*
X468574Y363027D01*
X468433Y363168D01*
X468356Y363353D01*
X468347Y363453D01*
X468347Y363453D01*
Y365283D01*
X461654D01*
D02*
G37*
M02*
