G04*
G04 #@! TF.GenerationSoftware,Altium Limited,Altium Designer,26.2.0 (7)*
G04*
G04 Layer_Color=65535*
%FSLAX25Y25*%
%MOIN*%
G70*
G04*
G04 #@! TF.SameCoordinates,030BD7D4-855A-4116-A74B-16AF596EF1BF*
G04*
G04*
G04 #@! TF.FilePolarity,Positive*
G04*
G01*
G75*
%ADD10C,0.00591*%
%ADD11C,0.00984*%
%ADD12C,0.02362*%
%ADD13C,0.00787*%
%ADD14C,0.00500*%
%ADD15C,0.01000*%
D10*
X56465Y174500D02*
G03*
X56465Y174500I-13386J0D01*
G01*
X93386D02*
G03*
X93386Y174500I-13386J0D01*
G01*
X130886D02*
G03*
X130886Y174500I-13386J0D01*
G01*
X406886Y178000D02*
G03*
X406886Y178000I-13386J0D01*
G01*
X94465Y63000D02*
G03*
X94465Y63000I-13386J0D01*
G01*
X242886Y143000D02*
G03*
X242886Y143000I-13386J0D01*
G01*
X406886Y218500D02*
G03*
X406886Y218500I-13386J0D01*
G01*
X193307Y169500D02*
G03*
X193307Y169500I-13386J0D01*
G01*
X192807Y208000D02*
G03*
X192807Y208000I-13386J0D01*
G01*
D11*
X45755Y222253D02*
G03*
X45755Y222253I-492J0D01*
G01*
X177992Y45185D02*
G03*
X177992Y45185I-492J0D01*
G01*
X465492Y348158D02*
G03*
X465492Y348158I-492J0D01*
G01*
X221677Y63000D02*
G03*
X221677Y63000I-492J0D01*
G01*
X296492Y284118D02*
G03*
X296492Y284118I-492J0D01*
G01*
X25492Y234095D02*
G03*
X25492Y234095I-492J0D01*
G01*
X356692Y311753D02*
G03*
X356692Y311753I-492J0D01*
G01*
X146992Y156835D02*
G03*
X146992Y156835I-492J0D01*
G01*
X229492Y167205D02*
G03*
X229492Y167205I-492J0D01*
G01*
X40177Y53000D02*
G03*
X40177Y53000I-492J0D01*
G01*
D12*
X305685Y279748D02*
G03*
X305685Y279748I-1181J0D01*
G01*
D13*
X308500Y283685D02*
G03*
X313500Y283685I2500J0D01*
G01*
X423165Y66701D02*
G03*
X423165Y79299I10338J6299D01*
G01*
X424665Y132701D02*
G03*
X424665Y145299I10338J6299D01*
G01*
X223095Y214449D02*
G03*
X219847Y211201I0J-3248D01*
G01*
X238154Y211201D02*
G03*
X234906Y214449I-3248J0D01*
G01*
X234906Y169764D02*
G03*
X238154Y173012I0J3248D01*
G01*
X219847D02*
G03*
X223095Y169764I3248J0D01*
G01*
X33728Y165445D02*
Y183555D01*
X70650Y165445D02*
Y183555D01*
X108150Y165445D02*
Y183555D01*
X47205Y219366D02*
Y227634D01*
X64921Y219366D02*
Y227634D01*
X172244Y47252D02*
X182756D01*
Y88748D01*
X172244D02*
X182756D01*
X172244Y47252D02*
Y88748D01*
X460866Y349732D02*
X469134D01*
Y366150D02*
Y366268D01*
Y349732D02*
Y349850D01*
X460866Y366268D02*
X469134D01*
X460866Y366150D02*
Y366268D01*
Y349732D02*
Y349850D01*
X208744Y68000D02*
X219256D01*
X208744Y57252D02*
X219256D01*
Y88748D01*
X208744D02*
X219256D01*
X208744Y57252D02*
Y88748D01*
X435000Y366248D02*
X445000D01*
Y304752D02*
Y366248D01*
X435000Y304752D02*
X445000D01*
X435000D02*
Y366248D01*
X412000D02*
X422000D01*
Y304752D02*
Y366248D01*
X412000Y304752D02*
X422000D01*
X412000D02*
Y366248D01*
X300567Y144315D02*
X321433D01*
X313500Y283685D02*
X321433D01*
X300567D02*
X308500D01*
X321433Y144315D02*
Y283685D01*
X300567Y144315D02*
Y283685D01*
X20866Y235669D02*
X29134D01*
Y252087D02*
Y252205D01*
Y235669D02*
Y235787D01*
X20866Y252205D02*
X29134D01*
X20866Y252087D02*
Y252205D01*
Y235669D02*
Y235787D01*
X384150Y168945D02*
Y187055D01*
X358142Y308866D02*
Y317134D01*
X375858Y308866D02*
Y317134D01*
X423165Y66701D02*
Y79299D01*
X350500Y76000D02*
Y78205D01*
Y13795D02*
Y16000D01*
X345264D02*
X355736D01*
Y76000D01*
X345264D02*
X355736D01*
X345264Y16000D02*
Y76000D01*
X155220Y113724D02*
Y154276D01*
X157189Y113724D02*
Y154276D01*
X137898Y113724D02*
Y154276D01*
Y113724D02*
X157189D01*
X137898Y154276D02*
X157189D01*
X71728Y53945D02*
Y72055D01*
X424665Y132701D02*
Y145299D01*
X220150Y133945D02*
Y152055D01*
X234906Y169764D02*
X234906Y169764D01*
X223095Y169764D02*
X234906D01*
X223095Y214449D02*
X234906D01*
X219847Y173012D02*
Y211201D01*
X238154Y173012D02*
Y211201D01*
X384150Y209445D02*
Y227555D01*
X27244Y58000D02*
X37756D01*
X27244Y47252D02*
X37756D01*
Y78748D01*
X27244D02*
X37756D01*
X27244Y47252D02*
Y78748D01*
X170571Y160445D02*
Y178555D01*
X170071Y198945D02*
Y217055D01*
X132500Y88748D02*
X142500D01*
Y37252D02*
Y88748D01*
X132500Y37252D02*
X142500D01*
X132500D02*
Y88748D01*
D14*
X241500Y272386D02*
Y274650D01*
Y243350D02*
Y245614D01*
X236382D02*
X246618D01*
Y272386D01*
X236382D02*
X246618D01*
X236382Y245614D02*
Y272386D01*
X296500Y352886D02*
Y355150D01*
Y323850D02*
Y326114D01*
X291382D02*
X301618D01*
Y352886D01*
X291382D02*
X301618D01*
X291382Y326114D02*
Y352886D01*
X319500D02*
Y355150D01*
Y323850D02*
Y326114D01*
X314382D02*
X324618D01*
Y352886D01*
X314382D02*
X324618D01*
X314382Y326114D02*
Y352886D01*
X384000Y67886D02*
Y70150D01*
Y38850D02*
Y41114D01*
X378882D02*
X389118D01*
Y67886D01*
X378882D02*
X389118D01*
X378882Y41114D02*
Y67886D01*
X112000Y127886D02*
Y130150D01*
Y98850D02*
Y101114D01*
X106882D02*
X117118D01*
Y127886D01*
X106882D02*
X117118D01*
X106882Y101114D02*
Y127886D01*
X323500Y76386D02*
Y78650D01*
Y47350D02*
Y49614D01*
X318382D02*
X328618D01*
Y76386D01*
X318382D02*
X328618D01*
X318382Y49614D02*
Y76386D01*
X384000Y133886D02*
Y136150D01*
Y104850D02*
Y107114D01*
X378882D02*
X389118D01*
Y133886D01*
X378882D02*
X389118D01*
X378882Y107114D02*
Y133886D01*
D15*
X220350Y223954D02*
Y222955D01*
X222349Y220955D01*
X224349Y222955D01*
Y223954D01*
X222349Y220955D02*
Y217956D01*
X226348D02*
X228347D01*
X227348D01*
Y223954D01*
X226348Y222955D01*
X137950Y166848D02*
Y161850D01*
X138950Y160850D01*
X140949D01*
X141949Y161850D01*
Y166848D01*
X143948Y160850D02*
X145947D01*
X144948D01*
Y166848D01*
X143948Y165848D01*
X349449Y93648D02*
X348449Y94648D01*
X346450D01*
X345450Y93648D01*
Y92649D01*
X346450Y91649D01*
X348449D01*
X349449Y90649D01*
Y89650D01*
X348449Y88650D01*
X346450D01*
X345450Y89650D01*
X351448Y94648D02*
Y88650D01*
X353447Y90649D01*
X355447Y88650D01*
Y94648D01*
X357446Y93648D02*
X358446Y94648D01*
X360445D01*
X361445Y93648D01*
Y92649D01*
X360445Y91649D01*
X359446D01*
X360445D01*
X361445Y90649D01*
Y89650D01*
X360445Y88650D01*
X358446D01*
X357446Y89650D01*
X461449Y376648D02*
X460449Y377648D01*
X458450D01*
X457450Y376648D01*
Y375649D01*
X458450Y374649D01*
X460449D01*
X461449Y373649D01*
Y372650D01*
X460449Y371650D01*
X458450D01*
X457450Y372650D01*
X463448Y369651D02*
Y375649D01*
X466447D01*
X467447Y374649D01*
Y372650D01*
X466447Y371650D01*
X463448D01*
X472445D02*
X470446D01*
X469446Y372650D01*
Y374649D01*
X470446Y375649D01*
X472445D01*
X473445Y374649D01*
Y373649D01*
X469446D01*
X476444Y375649D02*
X478443D01*
X479443Y374649D01*
Y371650D01*
X476444D01*
X475444Y372650D01*
X476444Y373649D01*
X479443D01*
X481442Y371650D02*
Y377648D01*
Y373649D02*
X484441Y375649D01*
X481442Y373649D02*
X484441Y371650D01*
X490439D02*
X488440D01*
X487440Y372650D01*
Y374649D01*
X488440Y375649D01*
X490439D01*
X491439Y374649D01*
Y373649D01*
X487440D01*
X493438Y375649D02*
Y371650D01*
Y373649D01*
X494438Y374649D01*
X495438Y375649D01*
X496437D01*
X360249Y329548D02*
X359249Y330548D01*
X357250D01*
X356250Y329548D01*
Y328549D01*
X357250Y327549D01*
X359249D01*
X360249Y326549D01*
Y325550D01*
X359249Y324550D01*
X357250D01*
X356250Y325550D01*
X366247Y324550D02*
X362248D01*
X366247Y328549D01*
Y329548D01*
X365247Y330548D01*
X363248D01*
X362248Y329548D01*
X49312Y240048D02*
X48312Y241048D01*
X46313D01*
X45313Y240048D01*
Y239049D01*
X46313Y238049D01*
X48312D01*
X49312Y237049D01*
Y236050D01*
X48312Y235050D01*
X46313D01*
X45313Y236050D01*
X51311Y235050D02*
X53310D01*
X52311D01*
Y241048D01*
X51311Y240048D01*
X107350Y140150D02*
Y146148D01*
X110349D01*
X111349Y145148D01*
Y143149D01*
X110349Y142149D01*
X107350D01*
X109349D02*
X111349Y140150D01*
X113348D02*
X115347D01*
X114348D01*
Y146148D01*
X113348Y145148D01*
X118346Y140150D02*
X120346D01*
X119346D01*
Y146148D01*
X118346Y145148D01*
X314850Y365150D02*
Y371148D01*
X317849D01*
X318849Y370148D01*
Y368149D01*
X317849Y367149D01*
X314850D01*
X316849D02*
X318849Y365150D01*
X320848Y371148D02*
X324847D01*
Y370148D01*
X320848Y366150D01*
Y365150D01*
X291850D02*
Y371148D01*
X294849D01*
X295849Y370148D01*
Y368149D01*
X294849Y367149D01*
X291850D01*
X293849D02*
X295849Y365150D01*
X301847Y371148D02*
X299847Y370148D01*
X297848Y368149D01*
Y366150D01*
X298848Y365150D01*
X300847D01*
X301847Y366150D01*
Y367149D01*
X300847Y368149D01*
X297848D01*
X318850Y88650D02*
Y94648D01*
X321849D01*
X322849Y93648D01*
Y91649D01*
X321849Y90649D01*
X318850D01*
X320849D02*
X322849Y88650D01*
X328847Y94648D02*
X324848D01*
Y91649D01*
X326847Y92649D01*
X327847D01*
X328847Y91649D01*
Y89650D01*
X327847Y88650D01*
X325848D01*
X324848Y89650D01*
X379350Y146150D02*
Y152148D01*
X382349D01*
X383349Y151148D01*
Y149149D01*
X382349Y148149D01*
X379350D01*
X381349D02*
X383349Y146150D01*
X388347D02*
Y152148D01*
X385348Y149149D01*
X389347D01*
X379350Y80150D02*
Y86148D01*
X382349D01*
X383349Y85148D01*
Y83149D01*
X382349Y82149D01*
X379350D01*
X381349D02*
X383349Y80150D01*
X385348Y85148D02*
X386348Y86148D01*
X388347D01*
X389347Y85148D01*
Y84149D01*
X388347Y83149D01*
X387347D01*
X388347D01*
X389347Y82149D01*
Y81150D01*
X388347Y80150D01*
X386348D01*
X385348Y81150D01*
X236850Y284650D02*
Y290648D01*
X239849D01*
X240849Y289648D01*
Y287649D01*
X239849Y286649D01*
X236850D01*
X238849D02*
X240849Y284650D01*
X242848D02*
X244847D01*
X243848D01*
Y290648D01*
X242848Y289648D01*
X17450Y255587D02*
Y261585D01*
X20449D01*
X21449Y260585D01*
Y258586D01*
X20449Y257586D01*
X17450D01*
X26447Y261585D02*
X24448D01*
X23448Y260585D01*
Y256587D01*
X24448Y255587D01*
X26447D01*
X27447Y256587D01*
Y260585D01*
X26447Y261585D01*
X29446D02*
Y255587D01*
X31446Y257586D01*
X33445Y255587D01*
Y261585D01*
X39443D02*
X35444D01*
Y255587D01*
X39443D01*
X35444Y258586D02*
X37444D01*
X41442Y255587D02*
Y261585D01*
X44441D01*
X45441Y260585D01*
Y258586D01*
X44441Y257586D01*
X41442D01*
X43442D02*
X45441Y255587D01*
X435050Y370250D02*
Y376248D01*
X438049D01*
X439049Y375248D01*
Y373249D01*
X438049Y372249D01*
X435050D01*
X445047Y370250D02*
X441048D01*
X445047Y374249D01*
Y375248D01*
X444047Y376248D01*
X442048D01*
X441048Y375248D01*
X412050Y370250D02*
Y376248D01*
X415049D01*
X416049Y375248D01*
Y373249D01*
X415049Y372249D01*
X412050D01*
X418048Y370250D02*
X420047D01*
X419048D01*
Y376248D01*
X418048Y375248D01*
X175449Y98548D02*
X173450D01*
X172450Y97548D01*
Y93550D01*
X173450Y92550D01*
X175449D01*
X176449Y93550D01*
Y97548D01*
X175449Y98548D01*
X178448D02*
Y92550D01*
X182447D01*
X188445Y98548D02*
X184446D01*
Y92550D01*
X188445D01*
X184446Y95549D02*
X186445D01*
X190444Y98548D02*
Y92550D01*
X193443D01*
X194443Y93550D01*
Y97548D01*
X193443Y98548D01*
X190444D01*
X293650Y288150D02*
Y294148D01*
X295649Y292149D01*
X297649Y294148D01*
Y288150D01*
X299648D02*
X301647D01*
X300648D01*
Y292149D01*
X299648D01*
X308645D02*
X305646D01*
X304646Y291149D01*
Y289150D01*
X305646Y288150D01*
X308645D01*
X310645Y292149D02*
Y288150D01*
Y290149D01*
X311644Y291149D01*
X312644Y292149D01*
X313644D01*
X317642Y288150D02*
X319642D01*
X320641Y289150D01*
Y291149D01*
X319642Y292149D01*
X317642D01*
X316643Y291149D01*
Y289150D01*
X317642Y288150D01*
X326639Y292149D02*
X323640D01*
X322641Y291149D01*
Y289150D01*
X323640Y288150D01*
X326639D01*
X329638D02*
X331638D01*
X332637Y289150D01*
Y291149D01*
X331638Y292149D01*
X329638D01*
X328639Y291149D01*
Y289150D01*
X329638Y288150D01*
X334637D02*
Y292149D01*
X337636D01*
X338635Y291149D01*
Y288150D01*
X341634Y293148D02*
Y292149D01*
X340635D01*
X342634D01*
X341634D01*
Y289150D01*
X342634Y288150D01*
X345633Y292149D02*
Y288150D01*
Y290149D01*
X346633Y291149D01*
X347633Y292149D01*
X348632D01*
X352631Y288150D02*
X354630D01*
X355630Y289150D01*
Y291149D01*
X354630Y292149D01*
X352631D01*
X351631Y291149D01*
Y289150D01*
X352631Y288150D01*
X357629D02*
X359629D01*
X358629D01*
Y294148D01*
X357629D01*
X362628Y288150D02*
X364627D01*
X363627D01*
Y294148D01*
X362628D01*
X370625Y288150D02*
X368626D01*
X367626Y289150D01*
Y291149D01*
X368626Y292149D01*
X370625D01*
X371625Y291149D01*
Y290149D01*
X367626D01*
X373624Y292149D02*
Y288150D01*
Y290149D01*
X374624Y291149D01*
X375623Y292149D01*
X376623D01*
X125004Y99999D02*
X123004D01*
X124004D01*
Y95000D01*
X123004Y94001D01*
X122005D01*
X121005Y95000D01*
X127003Y94001D02*
X129003D01*
X128003D01*
Y97999D01*
X127003D01*
X134001Y92001D02*
X135001D01*
X136000Y93001D01*
Y97999D01*
X133001D01*
X132002Y97000D01*
Y95000D01*
X133001Y94001D01*
X136000D01*
X139999Y92001D02*
X140999D01*
X141998Y93001D01*
Y97999D01*
X138999D01*
X138000Y97000D01*
Y95000D01*
X138999Y94001D01*
X141998D01*
X143998D02*
X145997D01*
X144997D01*
Y99999D01*
X143998D01*
X151995Y94001D02*
X149996D01*
X148996Y95000D01*
Y97000D01*
X149996Y97999D01*
X151995D01*
X152995Y97000D01*
Y96000D01*
X148996D01*
X31449Y88548D02*
X29449D01*
X30449D01*
Y83550D01*
X29449Y82550D01*
X28450D01*
X27450Y83550D01*
X33448Y82550D02*
X35447D01*
X34448D01*
Y88548D01*
X33448Y87548D01*
X208950Y98548D02*
Y92550D01*
X211949D01*
X212949Y93550D01*
Y97548D01*
X211949Y98548D01*
X208950D01*
X214948Y92550D02*
X216947D01*
X215948D01*
Y96549D01*
X214948D01*
X220946D02*
X222945D01*
X223945Y95549D01*
Y92550D01*
X220946D01*
X219946Y93550D01*
X220946Y94549D01*
X223945D01*
X225944Y92550D02*
X227944D01*
X226944D01*
Y98548D01*
X225944D01*
X423150Y160848D02*
Y154850D01*
X426149D01*
X427149Y155850D01*
Y159848D01*
X426149Y160848D01*
X423150D01*
X433147Y154850D02*
X429148D01*
X433147Y158849D01*
Y159848D01*
X432147Y160848D01*
X430148D01*
X429148Y159848D01*
X421650Y94848D02*
Y88850D01*
X424649D01*
X425649Y89850D01*
Y93848D01*
X424649Y94848D01*
X421650D01*
X427648Y88850D02*
X429647D01*
X428648D01*
Y94848D01*
X427648Y93848D01*
X384349Y200148D02*
X383349Y201148D01*
X381350D01*
X380350Y200148D01*
Y196150D01*
X381350Y195150D01*
X383349D01*
X384349Y196150D01*
X386348D02*
X387348Y195150D01*
X389347D01*
X390347Y196150D01*
Y200148D01*
X389347Y201148D01*
X387348D01*
X386348Y200148D01*
Y199149D01*
X387348Y198149D01*
X390347D01*
X384349Y240648D02*
X383349Y241648D01*
X381350D01*
X380350Y240648D01*
Y236650D01*
X381350Y235650D01*
X383349D01*
X384349Y236650D01*
X386348Y240648D02*
X387348Y241648D01*
X389347D01*
X390347Y240648D01*
Y239649D01*
X389347Y238649D01*
X390347Y237649D01*
Y236650D01*
X389347Y235650D01*
X387348D01*
X386348Y236650D01*
Y237649D01*
X387348Y238649D01*
X386348Y239649D01*
Y240648D01*
X387348Y238649D02*
X389347D01*
X220349Y165148D02*
X219349Y166148D01*
X217350D01*
X216350Y165148D01*
Y161150D01*
X217350Y160150D01*
X219349D01*
X220349Y161150D01*
X222348Y166148D02*
X226347D01*
Y165148D01*
X222348Y161150D01*
Y160150D01*
X71927Y85148D02*
X70928Y86148D01*
X68928D01*
X67929Y85148D01*
Y81150D01*
X68928Y80150D01*
X70928D01*
X71927Y81150D01*
X77925Y86148D02*
X75926Y85148D01*
X73927Y83149D01*
Y81150D01*
X74927Y80150D01*
X76926D01*
X77925Y81150D01*
Y82149D01*
X76926Y83149D01*
X73927D01*
X108349Y196648D02*
X107349Y197648D01*
X105350D01*
X104350Y196648D01*
Y192650D01*
X105350Y191650D01*
X107349D01*
X108349Y192650D01*
X114347Y197648D02*
X110348D01*
Y194649D01*
X112347Y195649D01*
X113347D01*
X114347Y194649D01*
Y192650D01*
X113347Y191650D01*
X111348D01*
X110348Y192650D01*
X70849Y196648D02*
X69849Y197648D01*
X67850D01*
X66850Y196648D01*
Y192650D01*
X67850Y191650D01*
X69849D01*
X70849Y192650D01*
X75847Y191650D02*
Y197648D01*
X72848Y194649D01*
X76847D01*
X33927Y196648D02*
X32928Y197648D01*
X30928D01*
X29929Y196648D01*
Y192650D01*
X30928Y191650D01*
X32928D01*
X33927Y192650D01*
X35927Y196648D02*
X36926Y197648D01*
X38926D01*
X39926Y196648D01*
Y195649D01*
X38926Y194649D01*
X37926D01*
X38926D01*
X39926Y193649D01*
Y192650D01*
X38926Y191650D01*
X36926D01*
X35927Y192650D01*
X170770Y191648D02*
X169770Y192648D01*
X167771D01*
X166771Y191648D01*
Y187650D01*
X167771Y186650D01*
X169770D01*
X170770Y187650D01*
X176768Y186650D02*
X172769D01*
X176768Y190649D01*
Y191648D01*
X175768Y192648D01*
X173769D01*
X172769Y191648D01*
X170270Y230148D02*
X169270Y231148D01*
X167271D01*
X166271Y230148D01*
Y226150D01*
X167271Y225150D01*
X169270D01*
X170270Y226150D01*
X172269Y225150D02*
X174269D01*
X173269D01*
Y231148D01*
X172269Y230148D01*
M02*
