G04*
G04 #@! TF.GenerationSoftware,Altium Limited,Altium Designer,26.2.0 (7)*
G04*
G04 Layer_Physical_Order=1*
G04 Layer_Color=255*
%FSLAX25Y25*%
%MOIN*%
G70*
G04*
G04 #@! TF.SameCoordinates,030BD7D4-855A-4116-A74B-16AF596EF1BF*
G04*
G04*
G04 #@! TF.FilePolarity,Positive*
G04*
G01*
G75*
%ADD15C,0.01000*%
%ADD16C,0.04724*%
%ADD17R,0.04724X0.04724*%
%ADD18R,0.05472X0.05472*%
%ADD19R,0.04921X0.04921*%
%ADD20R,0.07480X0.07480*%
%ADD22R,0.05118X0.05118*%
%ADD24C,0.05472*%
%ADD25C,0.06181*%
%ADD26R,0.06181X0.06181*%
%ADD27R,0.05472X0.05472*%
%ADD28C,0.04921*%
%ADD32C,0.07480*%
%ADD33C,0.05118*%
%ADD37C,0.01500*%
%ADD38C,0.03000*%
%ADD39R,0.06299X0.06299*%
%ADD40C,0.05906*%
%ADD41R,0.06102X0.06102*%
%ADD42C,0.06102*%
%ADD43R,0.05906X0.05906*%
%ADD44C,0.06299*%
%ADD45R,0.04724X0.04724*%
D15*
X302500Y179203D02*
Y202500D01*
X296000Y209000D02*
X302500Y202500D01*
X296750Y173453D02*
X302500Y179203D01*
X295250Y184547D02*
X297844D01*
X300240Y186943D01*
X296000Y199000D02*
X300240Y194760D01*
Y186943D02*
Y194760D01*
X296000Y259000D02*
X319500Y282500D01*
Y319815D01*
X121646Y239315D02*
X241500D01*
X89626Y207295D02*
X121646Y239315D01*
X43500Y240000D02*
X60000Y223500D01*
X25000Y240000D02*
X43500D01*
X85461Y63539D02*
X86000Y63000D01*
X85461Y63539D02*
Y173961D01*
X84921Y174500D02*
X85461Y173961D01*
X434760Y144240D02*
X440000Y139000D01*
X411739Y144240D02*
X434760D01*
X407684Y140185D02*
X411739Y144240D01*
X384000Y140185D02*
X407684D01*
X433260Y67760D02*
X438500Y73000D01*
X390425Y67760D02*
X433260D01*
X384000Y74185D02*
X390425Y67760D01*
X347000Y178000D02*
X388579D01*
X326000Y199000D02*
X347000Y178000D01*
X234421Y143000D02*
X264874Y173453D01*
X296750D01*
X293203Y182500D02*
X295250Y184547D01*
X229000Y182500D02*
X293203D01*
X216000Y169500D02*
X229000Y182500D01*
X184843Y169500D02*
X216000D01*
X229000Y201713D02*
X283287D01*
X296000Y189000D01*
X190630Y201713D02*
X229000D01*
X184343Y208000D02*
X190630Y201713D01*
X112000Y134185D02*
X112092Y134092D01*
X146407D01*
X146500Y134000D01*
X122421Y174500D02*
X146500Y150421D01*
Y144000D02*
Y150421D01*
X89626Y207295D02*
X122421Y174500D01*
X52126Y207295D02*
X89626D01*
X52126D02*
Y223500D01*
X48000Y174500D02*
X52126Y178626D01*
Y207295D01*
X84921Y174500D01*
X295685Y278685D02*
X296000Y279000D01*
X241500Y278685D02*
X295685D01*
X296000Y269000D02*
X300453Y273453D01*
Y294341D01*
X296500Y298294D02*
X300453Y294341D01*
X296500Y298294D02*
Y319815D01*
D16*
X48000Y174500D02*
D03*
X84921D02*
D03*
X122421D02*
D03*
X398421Y178000D02*
D03*
X86000Y63000D02*
D03*
X234421Y143000D02*
D03*
X229000Y201713D02*
D03*
X398421Y218500D02*
D03*
X184843Y169500D02*
D03*
X184343Y208000D02*
D03*
D17*
X38157Y174500D02*
D03*
X75079D02*
D03*
X112579D02*
D03*
X388579Y218500D02*
D03*
X224579Y143000D02*
D03*
X175000Y169500D02*
D03*
X174500Y208000D02*
D03*
X388579Y178000D02*
D03*
X76157Y63000D02*
D03*
D18*
X363063Y313000D02*
D03*
X52126Y223500D02*
D03*
D19*
X112000Y94815D02*
D03*
X241500Y239315D02*
D03*
X296500Y319815D02*
D03*
X319500D02*
D03*
X384000Y34815D02*
D03*
X323500Y43315D02*
D03*
X384000Y100815D02*
D03*
D20*
X430000Y139000D02*
D03*
X428500Y73000D02*
D03*
D22*
X350500Y9661D02*
D03*
D24*
X60000Y223500D02*
D03*
X465000Y361937D02*
D03*
X25000Y247874D02*
D03*
X370937Y313000D02*
D03*
D25*
X177500Y83000D02*
D03*
Y73000D02*
D03*
Y63000D02*
D03*
X214000Y83000D02*
D03*
Y73000D02*
D03*
X32500D02*
D03*
Y63000D02*
D03*
D26*
X177500Y53000D02*
D03*
X214000Y63000D02*
D03*
X32500Y53000D02*
D03*
D27*
X465000Y354063D02*
D03*
X25000Y240000D02*
D03*
D28*
X241500Y278685D02*
D03*
X296500Y359185D02*
D03*
X319500D02*
D03*
X384000Y74185D02*
D03*
X112000Y134185D02*
D03*
X323500Y82685D02*
D03*
X384000Y140185D02*
D03*
D32*
X438500Y73000D02*
D03*
X440000Y139000D02*
D03*
D33*
X350500Y82339D02*
D03*
D37*
X400563Y350500D02*
X417000D01*
X363063Y313000D02*
X400563Y350500D01*
X440000Y360500D02*
X445711Y366211D01*
X466770D01*
X469274Y363707D01*
Y358337D02*
Y363707D01*
X465000Y354063D02*
X469274Y358337D01*
X453563Y350500D02*
X465000Y361937D01*
X440000Y350500D02*
X453563D01*
X305500Y172150D02*
Y235850D01*
X297860Y243490D02*
X305500Y235850D01*
X296840Y163490D02*
X305500Y172150D01*
X314500Y161150D02*
Y217500D01*
X300604Y147253D02*
X314500Y161150D01*
Y217500D02*
X326000Y229000D01*
X310999Y253999D02*
X326000Y269000D01*
X310999Y167649D02*
Y253999D01*
X296840Y153490D02*
X310999Y167649D01*
X318000Y217350D02*
X324140Y223490D01*
X318000Y67329D02*
Y217350D01*
Y67329D02*
X321789Y63540D01*
X32500Y53000D02*
X47089Y38411D01*
X325692D01*
X327498Y40218D01*
Y93774D01*
X321510Y99762D02*
X327498Y93774D01*
X321510Y99762D02*
Y154510D01*
X326000Y159000D01*
X394522Y222400D02*
X398421Y218500D01*
X362120Y222400D02*
X394522D01*
X358721Y219000D02*
X362120Y222400D01*
X326000Y219000D02*
X358721D01*
X326000Y239000D02*
X330490Y234510D01*
Y227140D02*
Y234510D01*
X326840Y223490D02*
X330490Y227140D01*
X324140Y223490D02*
X326840D01*
X321789Y45026D02*
Y63540D01*
Y45026D02*
X323500Y43315D01*
X276113Y122763D02*
Y122763D01*
X300604Y147253D01*
X300604D01*
X263868Y110518D02*
X276113Y122763D01*
X251518Y110518D02*
X263868D01*
X214000Y73000D02*
X251518Y110518D01*
X277945Y153490D02*
X296840D01*
X209372Y84917D02*
X277945Y153490D01*
X209372Y84872D02*
Y84917D01*
X177500Y53000D02*
X209372Y84872D01*
X295160Y243490D02*
X297860D01*
X325597Y278597D02*
X326000Y279000D01*
X321947Y278597D02*
X325597D01*
X297860Y254510D02*
X321947Y278597D01*
X295160Y254510D02*
X297860D01*
X291510Y250860D02*
X295160Y254510D01*
X291510Y247140D02*
Y250860D01*
Y247140D02*
X295160Y243490D01*
X277990Y163490D02*
X296840D01*
X177500Y63000D02*
X277990Y163490D01*
X326000Y149000D02*
X374185Y100815D01*
X384000D01*
X417000Y360500D02*
X421589Y355911D01*
Y236152D02*
Y355911D01*
X398421Y212985D02*
X421589Y236152D01*
X398421Y178000D02*
Y212985D01*
X350500Y9661D02*
X382625D01*
X445278Y72314D01*
Y141186D01*
X408464Y178000D02*
X445278Y141186D01*
X398421Y178000D02*
X408464D01*
X177500Y83000D02*
Y113000D01*
X146500Y144000D02*
X177500Y113000D01*
X132911Y110411D02*
X146500Y124000D01*
X132911Y57589D02*
Y110411D01*
Y57589D02*
X137500Y53000D01*
X167500Y73000D02*
X177500Y63000D01*
X137500Y73000D02*
X167500D01*
Y63000D02*
X177500Y53000D01*
X137500Y63000D02*
X167500D01*
X32500D02*
X76157D01*
D38*
X52829Y323326D02*
X49497Y326658D01*
X42832D01*
X39500Y323326D01*
Y309997D01*
X42832Y306664D01*
X49497D01*
X52829Y309997D01*
Y316661D01*
X46165D01*
X59493Y319993D02*
Y306664D01*
Y313329D01*
X62826Y316661D01*
X66158Y319993D01*
X69490D01*
X82819Y306664D02*
X89484D01*
X92816Y309997D01*
Y316661D01*
X89484Y319993D01*
X82819D01*
X79487Y316661D01*
Y309997D01*
X82819Y306664D01*
X99481Y319993D02*
Y309997D01*
X102813Y306664D01*
X112810D01*
Y319993D01*
X119474Y300000D02*
Y319993D01*
X129471D01*
X132803Y316661D01*
Y309997D01*
X129471Y306664D01*
X119474D01*
X159461D02*
Y326658D01*
X169458D01*
X172790Y323326D01*
Y316661D01*
X169458Y313329D01*
X159461D01*
X179455Y326658D02*
Y306664D01*
Y316661D01*
X182787Y319993D01*
X189452D01*
X192784Y316661D01*
Y306664D01*
X199448D02*
X206113D01*
X202781D01*
Y319993D01*
X199448D01*
D39*
X146500Y144000D02*
D03*
D40*
X296000Y219000D02*
D03*
X326000Y149000D02*
D03*
Y159000D02*
D03*
Y169000D02*
D03*
Y179000D02*
D03*
Y189000D02*
D03*
Y199000D02*
D03*
Y209000D02*
D03*
Y219000D02*
D03*
Y229000D02*
D03*
Y239000D02*
D03*
Y249000D02*
D03*
Y259000D02*
D03*
Y269000D02*
D03*
Y279000D02*
D03*
X296000Y149000D02*
D03*
Y159000D02*
D03*
Y169000D02*
D03*
Y179000D02*
D03*
Y189000D02*
D03*
Y199000D02*
D03*
Y209000D02*
D03*
Y229000D02*
D03*
Y239000D02*
D03*
Y249000D02*
D03*
Y259000D02*
D03*
Y269000D02*
D03*
D41*
X440000Y310500D02*
D03*
X417000D02*
D03*
X137500Y43000D02*
D03*
D42*
X440000Y320500D02*
D03*
Y330500D02*
D03*
Y340500D02*
D03*
Y350500D02*
D03*
Y360500D02*
D03*
X417000Y320500D02*
D03*
Y330500D02*
D03*
Y340500D02*
D03*
Y350500D02*
D03*
Y360500D02*
D03*
X137500Y53000D02*
D03*
Y63000D02*
D03*
Y73000D02*
D03*
Y83000D02*
D03*
D43*
X296000Y279000D02*
D03*
D44*
X146500Y124000D02*
D03*
Y134000D02*
D03*
D45*
X229000Y182500D02*
D03*
M02*
