G04*
G04 #@! TF.GenerationSoftware,Altium Limited,Altium Designer,26.2.0 (7)*
G04*
G04 Layer_Color=0*
%FSLAX25Y25*%
%MOIN*%
G70*
G04*
G04 #@! TF.SameCoordinates,030BD7D4-855A-4116-A74B-16AF596EF1BF*
G04*
G04*
G04 #@! TF.FilePolarity,Positive*
G04*
G01*
G75*
%ADD46C,0.00394*%
D46*
X43079Y172531D02*
Y176469D01*
X41110Y174500D02*
X45047D01*
X80000Y172531D02*
Y176469D01*
X78031Y174500D02*
X81968D01*
X117500Y172531D02*
Y176469D01*
X115532Y174500D02*
X119468D01*
X56063Y221532D02*
Y225468D01*
X54094Y223500D02*
X58031D01*
X175531Y68000D02*
X179469D01*
X177500Y66031D02*
Y69968D01*
X463031Y358000D02*
X466968D01*
X465000Y356031D02*
Y359968D01*
X212032Y73000D02*
X215968D01*
X214000Y71031D02*
Y74968D01*
X239531Y259000D02*
X243468D01*
X241500Y257031D02*
Y260968D01*
X23031Y243937D02*
X26969D01*
X25000Y241968D02*
Y245905D01*
X393500Y176031D02*
Y179969D01*
X391531Y178000D02*
X395468D01*
X294531Y339500D02*
X298468D01*
X296500Y337531D02*
Y341469D01*
X317531Y339500D02*
X321468D01*
X319500Y337531D02*
Y341469D01*
X367000Y311032D02*
Y314968D01*
X365032Y313000D02*
X368969D01*
X433500Y71031D02*
Y74968D01*
X431531Y73000D02*
X435468D01*
X348532Y46000D02*
X352468D01*
X350500Y44032D02*
Y47969D01*
X382031Y54500D02*
X385968D01*
X384000Y52531D02*
Y56468D01*
X110031Y114500D02*
X113969D01*
X112000Y112531D02*
Y116469D01*
X81079Y61032D02*
Y64969D01*
X79110Y63000D02*
X83047D01*
X321532D02*
X325468D01*
X323500Y61032D02*
Y64969D01*
X435000Y137031D02*
Y140969D01*
X433032Y139000D02*
X436969D01*
X382031Y120500D02*
X385968D01*
X384000Y118532D02*
Y122468D01*
X229500Y141032D02*
Y144968D01*
X227532Y143000D02*
X231469D01*
X393500Y216531D02*
Y220468D01*
X391531Y218500D02*
X395468D01*
X30531Y63000D02*
X34468D01*
X32500Y61032D02*
Y64969D01*
X179921Y167532D02*
Y171468D01*
X177953Y169500D02*
X181890D01*
X179421Y206031D02*
Y209968D01*
X177453Y208000D02*
X181390D01*
M02*
