G04*
G04 #@! TF.GenerationSoftware,Altium Limited,Altium Designer,26.2.0 (7)*
G04*
G04 Layer_Color=16711935*
%FSLAX25Y25*%
%MOIN*%
G70*
G04*
G04 #@! TF.SameCoordinates,030BD7D4-855A-4116-A74B-16AF596EF1BF*
G04*
G04*
G04 #@! TF.FilePolarity,Positive*
G04*
G01*
G75*
%ADD10C,0.00591*%
%ADD13C,0.00787*%
%ADD46C,0.00394*%
D10*
X56465Y174500D02*
G03*
X56465Y174500I-13386J0D01*
G01*
X93386D02*
G03*
X93386Y174500I-13386J0D01*
G01*
X130886D02*
G03*
X130886Y174500I-13386J0D01*
G01*
X406886Y178000D02*
G03*
X406886Y178000I-13386J0D01*
G01*
X445606Y73000D02*
G03*
X445606Y73000I-12106J0D01*
G01*
X94465Y63000D02*
G03*
X94465Y63000I-13386J0D01*
G01*
X447106Y139000D02*
G03*
X447106Y139000I-12106J0D01*
G01*
X242886Y143000D02*
G03*
X242886Y143000I-13386J0D01*
G01*
X406886Y218500D02*
G03*
X406886Y218500I-13386J0D01*
G01*
X193307Y169500D02*
G03*
X193307Y169500I-13386J0D01*
G01*
X192807Y208000D02*
G03*
X192807Y208000I-13386J0D01*
G01*
D13*
X48189Y219366D02*
Y227634D01*
Y219366D02*
X63937D01*
Y227634D01*
X48189D02*
X63937D01*
X172244Y47252D02*
X182756D01*
Y88748D01*
X172244D02*
X182756D01*
X172244Y47252D02*
Y88748D01*
X460866Y350126D02*
X469134D01*
Y365874D01*
X460866D02*
X469134D01*
X460866Y350126D02*
Y365874D01*
X208744Y57252D02*
X219256D01*
Y88748D01*
X208744D02*
X219256D01*
X208744Y57252D02*
Y88748D01*
X20866Y236063D02*
X29134D01*
Y251811D01*
X20866D02*
X29134D01*
X20866Y236063D02*
Y251811D01*
X359126Y308866D02*
Y317134D01*
Y308866D02*
X374874D01*
Y317134D01*
X359126D02*
X374874D01*
X345264Y16000D02*
X355736D01*
Y76000D01*
X345264D02*
X355736D01*
X345264Y16000D02*
Y76000D01*
X27244Y47252D02*
X37756D01*
Y78748D01*
X27244D02*
X37756D01*
X27244Y47252D02*
Y78748D01*
D46*
X302339Y279945D02*
G03*
X302339Y279945I-1969J0D01*
G01*
X219846Y173012D02*
G03*
X223094Y169764I3248J0D01*
G01*
X234905Y169764D02*
G03*
X238153Y173012I0J3248D01*
G01*
Y211201D02*
G03*
X234905Y214449I-3248J0D01*
G01*
X223094Y214449D02*
G03*
X219846Y211201I0J-3248D01*
G01*
X221716Y174095D02*
G03*
X223488Y172323I1772J0D01*
G01*
X234511D02*
G03*
X236283Y174095I0J1772D01*
G01*
Y210118D02*
G03*
X234511Y211890I-1772J0D01*
G01*
X223488D02*
G03*
X221716Y210118I0J-1772D01*
G01*
X435000Y366248D02*
X445000D01*
Y304752D02*
Y366248D01*
X435000Y304752D02*
X445000D01*
X435000D02*
Y366248D01*
X412000D02*
X422000D01*
Y304752D02*
Y366248D01*
X412000Y304752D02*
X422000D01*
X412000D02*
Y366248D01*
X296827Y144512D02*
X325173D01*
X296827Y283488D02*
X325173D01*
Y144512D02*
Y283488D01*
X296827Y144512D02*
Y283488D01*
X154925Y113724D02*
Y154276D01*
X137996Y113724D02*
X157091D01*
X137996Y154276D02*
X157091D01*
Y113724D02*
Y154276D01*
X137996Y113724D02*
Y154276D01*
X238153Y173012D02*
Y211201D01*
X219846Y173012D02*
Y211201D01*
X236283Y174094D02*
Y210118D01*
X221716Y174094D02*
Y210118D01*
X223488Y211890D02*
X234511D01*
X223094Y214449D02*
X234905D01*
X223488Y172323D02*
X234511D01*
X223094Y169764D02*
X234905D01*
X234905Y169764D01*
X132500Y88748D02*
X142500D01*
Y37252D02*
Y88748D01*
X132500Y37252D02*
X142500D01*
X132500D02*
Y88748D01*
M02*
