M48
;Layer_Color=9474304
;FILE_FORMAT=2:4
INCH,TZ
;TYPE=PLATED
T01F00S00C0.0276
T02F00S00C0.0295
T03F00S00C0.0315
T04F00S00C0.0350
T05F00S00C0.0354
T06F00S00C0.0394
T07F00S00C0.0402
T08F00S00C0.0492
%
T01
X38858Y17800
X39842
X22900Y18250
Y20171
X22458Y14300
X23442
X18484Y16950
X17500
X17450Y20800
X18434
X12242Y17450
X11258
X8492
X7508
X7616Y6300
X8600
X4800Y17450
X3816
X38858Y21850
X39842
T02
X32350Y4331
X38400Y3482
Y7419
Y10081
Y14018
X32350Y8268
X11200Y9481
Y13419
X24150Y23932
Y27868
X29650Y31981
X31950
Y35919
X29650
T03
X35050Y966
Y8234
T04
X2500Y24000
Y24787
X5213Y22350
X6000
X36306Y31300
X37094
X46500Y35406
Y36194
T05
X29600Y14900
Y15900
Y16900
Y17900
Y18900
Y19900
Y20900
X32600
Y19900
Y18900
Y17900
Y16900
Y15900
Y14900
Y21900
Y22900
Y23900
Y24900
Y25900
Y26900
Y27900
X29600
Y26900
Y25900
Y24900
Y23900
Y22900
Y21900
T06
X14650Y12400
Y13400
Y14400
T07
X3250Y5300
X13750
Y4300
X17750Y5300
X21400Y6300
Y7300
Y8300
X17750
Y7300
Y6300
X13750
Y7300
Y8300
X3250Y7300
Y6300
X41700Y31050
Y32050
Y33050
Y34050
Y35050
Y36050
X44000
Y35050
Y34050
Y33050
Y32050
Y31050
T08
X42850Y7300
X43850
X44000Y13900
X43000
M30
