G04*
G04 #@! TF.GenerationSoftware,Altium Limited,Altium Designer,26.2.0 (7)*
G04*
G04 Layer_Color=255*
%FSLAX25Y25*%
%MOIN*%
G70*
G04*
G04 #@! TF.SameCoordinates,030BD7D4-855A-4116-A74B-16AF596EF1BF*
G04*
G04*
G04 #@! TF.FilePolarity,Positive*
G04*
G01*
G75*
%ADD16C,0.04724*%
%ADD17R,0.04724X0.04724*%
%ADD18R,0.05472X0.05472*%
%ADD19R,0.04921X0.04921*%
%ADD20R,0.07480X0.07480*%
%ADD22R,0.05118X0.05118*%
%ADD24C,0.05472*%
%ADD25C,0.06181*%
%ADD26R,0.06181X0.06181*%
%ADD27R,0.05472X0.05472*%
%ADD28C,0.04921*%
%ADD32C,0.07480*%
%ADD33C,0.05118*%
%ADD39R,0.06299X0.06299*%
%ADD40C,0.05906*%
%ADD41R,0.06102X0.06102*%
%ADD42C,0.06102*%
%ADD43R,0.05906X0.05906*%
%ADD44C,0.06299*%
%ADD45R,0.04724X0.04724*%
D16*
X48000Y174500D02*
D03*
X84921D02*
D03*
X122421D02*
D03*
X398421Y178000D02*
D03*
X86000Y63000D02*
D03*
X234421Y143000D02*
D03*
X229000Y201713D02*
D03*
X398421Y218500D02*
D03*
X184843Y169500D02*
D03*
X184343Y208000D02*
D03*
D17*
X38157Y174500D02*
D03*
X75079D02*
D03*
X112579D02*
D03*
X388579Y218500D02*
D03*
X224579Y143000D02*
D03*
X175000Y169500D02*
D03*
X174500Y208000D02*
D03*
X388579Y178000D02*
D03*
X76157Y63000D02*
D03*
D18*
X363063Y313000D02*
D03*
X52126Y223500D02*
D03*
D19*
X112000Y94815D02*
D03*
X241500Y239315D02*
D03*
X296500Y319815D02*
D03*
X319500D02*
D03*
X384000Y34815D02*
D03*
X323500Y43315D02*
D03*
X384000Y100815D02*
D03*
D20*
X430000Y139000D02*
D03*
X428500Y73000D02*
D03*
D22*
X350500Y9661D02*
D03*
D24*
X60000Y223500D02*
D03*
X465000Y361937D02*
D03*
X25000Y247874D02*
D03*
X370937Y313000D02*
D03*
D25*
X177500Y83000D02*
D03*
Y73000D02*
D03*
Y63000D02*
D03*
X214000Y83000D02*
D03*
Y73000D02*
D03*
X32500D02*
D03*
Y63000D02*
D03*
D26*
X177500Y53000D02*
D03*
X214000Y63000D02*
D03*
X32500Y53000D02*
D03*
D27*
X465000Y354063D02*
D03*
X25000Y240000D02*
D03*
D28*
X241500Y278685D02*
D03*
X296500Y359185D02*
D03*
X319500D02*
D03*
X384000Y74185D02*
D03*
X112000Y134185D02*
D03*
X323500Y82685D02*
D03*
X384000Y140185D02*
D03*
D32*
X438500Y73000D02*
D03*
X440000Y139000D02*
D03*
D33*
X350500Y82339D02*
D03*
D39*
X146500Y144000D02*
D03*
D40*
X296000Y219000D02*
D03*
X326000Y149000D02*
D03*
Y159000D02*
D03*
Y169000D02*
D03*
Y179000D02*
D03*
Y189000D02*
D03*
Y199000D02*
D03*
Y209000D02*
D03*
Y219000D02*
D03*
Y229000D02*
D03*
Y239000D02*
D03*
Y249000D02*
D03*
Y259000D02*
D03*
Y269000D02*
D03*
Y279000D02*
D03*
X296000Y149000D02*
D03*
Y159000D02*
D03*
Y169000D02*
D03*
Y179000D02*
D03*
Y189000D02*
D03*
Y199000D02*
D03*
Y209000D02*
D03*
Y229000D02*
D03*
Y239000D02*
D03*
Y249000D02*
D03*
Y259000D02*
D03*
Y269000D02*
D03*
D41*
X440000Y310500D02*
D03*
X417000D02*
D03*
X137500Y43000D02*
D03*
D42*
X440000Y320500D02*
D03*
Y330500D02*
D03*
Y340500D02*
D03*
Y350500D02*
D03*
Y360500D02*
D03*
X417000Y320500D02*
D03*
Y330500D02*
D03*
Y340500D02*
D03*
Y350500D02*
D03*
Y360500D02*
D03*
X137500Y53000D02*
D03*
Y63000D02*
D03*
Y73000D02*
D03*
Y83000D02*
D03*
D43*
X296000Y279000D02*
D03*
D44*
X146500Y124000D02*
D03*
Y134000D02*
D03*
D45*
X229000Y182500D02*
D03*
M02*
